<?xml version="1.0" encoding="UTF-8"?>
<svg id="Capa_1" xmlns="http://www.w3.org/2000/svg" version="1.1" viewBox="0 0 595.28 841.89">
  <!-- Generator: Adobe Illustrator 29.6.1, SVG Export Plug-In . SVG Version: 2.1.1 Build 9)  -->
  <defs>
    <style>
      .st0 {
        fill: #11aee6;
      }

      .st1 {
        fill: #13150e;
        stroke: #0d120c;
      }

      .st1, .st2, .st3 {
        stroke-miterlimit: 10;
      }

      .st4 {
        fill: #050a07;
      }

      .st5 {
        fill: #040408;
      }

      .st2 {
        fill: #fff;
      }

      .st2, .st3 {
        stroke: #1d1d1b;
      }

      .st6 {
        fill: #2ebeef;
      }

      .st3 {
        fill: #1d1d1b;
      }
    </style>
  </defs>
  <path class="st1" d="M300.62,717.06l158.85-135.86c61-52.17,86.32-134.92,64.96-212.3l-49.46-231.35H140.66s-71.44,258.81-71.44,258.81c-16.73,60.62,3.11,125.45,50.9,166.33l180.5,154.37Z"/>
  <path class="st2" d="M302.26,690l146.81-125.89c56.38-48.34,79.78-125.02,60.04-196.73l-45.71-214.38H154.43s-66.02,239.83-66.02,239.83c-15.46,56.18,2.87,116.25,47.04,154.13l166.81,143.05Z"/>
  <g>
    <g>
      <polygon class="st6" points="346.37 248.4 315.37 248.4 284.37 465.21 322.37 465.21 346.37 248.4"/>
      <polygon class="st6" points="336.25 386.4 407 376.33 400.31 353.77 338.8 363.4 336.25 386.4"/>
      <polygon class="st6" points="432.92 464.41 391.87 463.71 346.37 248.4 376.42 249.1 432.92 464.41"/>
      <polygon class="st6" points="311.83 270.63 380.91 270.61 375.27 249.1 316.3 248.4 311.83 270.63"/>
    </g>
    <polygon class="st4" points="216.89 465.21 183.89 465.21 183.89 256.21 216.89 248.4 216.89 465.21"/>
    <polygon class="st4" points="183.89 465.21 183.89 432.21 304.71 432.21 288.71 465.21 183.89 465.21"/>
  </g>
  <g>
    <g>
      <rect class="st3" x="206.38" y="499.16" width="204.05" height="106.74"/>
      <path class="st3" d="M135.96,569.15c-58.59,72.01,22.49,139.57,81.08,67.56,25.52-31.36,68.39-42.34,63.54-84.27-4.84-41.93-41.14-72.17-81.08-67.56-39.94,4.61-37.07,51.73-63.54,84.27Z"/>
      <path class="st3" d="M384.44,633.33c56.22,73.53,139.78,9.64,83.55-63.89-24.49-32.02-25.38-76.37-66.93-81.14-41.56-4.76-78.96,23.84-83.55,63.89-4.59,40.05,41.53,47.91,66.93,81.14Z"/>
    </g>
    <circle class="st0" cx="388.46" cy="552.53" r="40.81"/>
    <circle class="st0" cx="221.29" cy="552.53" r="40.81"/>
    <ellipse class="st0" cx="237.77" cy="551.74" rx="3.14" ry=".78"/>
  </g>
  <g>
    <rect class="st5" x="215.11" y="525.35" width="14.16" height="49.94" rx="1.84" ry="1.84"/>
    <rect class="st5" x="215.28" y="524.35" width="14.27" height="51.92" rx="2.47" ry="2.47" transform="translate(-327.9 772.72) rotate(-90)"/>
  </g>
  <circle class="st5" cx="388.46" cy="531.9" r="9.47"/>
  <circle class="st5" cx="407.4" cy="554.22" r="9.47"/>
  <circle class="st5" cx="369.51" cy="554.22" r="9.47"/>
  <circle class="st5" cx="388.46" cy="573.16" r="9.47"/>
</svg>